<mxfile host="app.diagrams.net" agent="Mozilla/5.0 (Windows NT 10.0; Win64; x64) AppleWebKit/537.36 (KHTML, like Gecko) Chrome/130.0.0.0 Safari/537.36" version="24.8.4">
  <diagram id="C5RBs43oDa-KdzZeNtuy" name="Page-1">
    <mxGraphModel dx="1434" dy="746" grid="1" gridSize="10" guides="1" tooltips="1" connect="1" arrows="1" fold="1" page="1" pageScale="1" pageWidth="827" pageHeight="1169" math="0" shadow="0">
      <root>
        <mxCell id="WIyWlLk6GJQsqaUBKTNV-0" />
        <mxCell id="WIyWlLk6GJQsqaUBKTNV-1" parent="WIyWlLk6GJQsqaUBKTNV-0" />
        <mxCell id="nkC5d7Wf9p8jkV71f5r1-2" value="" style="edgeStyle=orthogonalEdgeStyle;rounded=0;orthogonalLoop=1;jettySize=auto;html=1;" edge="1" parent="WIyWlLk6GJQsqaUBKTNV-1" source="nkC5d7Wf9p8jkV71f5r1-0" target="nkC5d7Wf9p8jkV71f5r1-1">
          <mxGeometry relative="1" as="geometry" />
        </mxCell>
        <mxCell id="nkC5d7Wf9p8jkV71f5r1-0" value="Inicio" style="ellipse;whiteSpace=wrap;html=1;aspect=fixed;" vertex="1" parent="WIyWlLk6GJQsqaUBKTNV-1">
          <mxGeometry x="374" y="40" width="80" height="80" as="geometry" />
        </mxCell>
        <mxCell id="nkC5d7Wf9p8jkV71f5r1-4" value="" style="edgeStyle=orthogonalEdgeStyle;rounded=0;orthogonalLoop=1;jettySize=auto;html=1;" edge="1" parent="WIyWlLk6GJQsqaUBKTNV-1" source="nkC5d7Wf9p8jkV71f5r1-1" target="nkC5d7Wf9p8jkV71f5r1-3">
          <mxGeometry relative="1" as="geometry" />
        </mxCell>
        <mxCell id="nkC5d7Wf9p8jkV71f5r1-1" value="Mostrar mensaje: &quot;Por favor, ingrese la edad del cliente: &quot;" style="shape=parallelogram;perimeter=parallelogramPerimeter;whiteSpace=wrap;html=1;fixedSize=1;" vertex="1" parent="WIyWlLk6GJQsqaUBKTNV-1">
          <mxGeometry x="354" y="160" width="120" height="60" as="geometry" />
        </mxCell>
        <mxCell id="nkC5d7Wf9p8jkV71f5r1-6" value="SI" style="edgeStyle=orthogonalEdgeStyle;rounded=0;orthogonalLoop=1;jettySize=auto;html=1;" edge="1" parent="WIyWlLk6GJQsqaUBKTNV-1" source="nkC5d7Wf9p8jkV71f5r1-3" target="nkC5d7Wf9p8jkV71f5r1-5">
          <mxGeometry relative="1" as="geometry" />
        </mxCell>
        <mxCell id="nkC5d7Wf9p8jkV71f5r1-8" value="No" style="edgeStyle=orthogonalEdgeStyle;rounded=0;orthogonalLoop=1;jettySize=auto;html=1;" edge="1" parent="WIyWlLk6GJQsqaUBKTNV-1" source="nkC5d7Wf9p8jkV71f5r1-3" target="nkC5d7Wf9p8jkV71f5r1-7">
          <mxGeometry relative="1" as="geometry" />
        </mxCell>
        <mxCell id="nkC5d7Wf9p8jkV71f5r1-3" value="edad &amp;gt;= 18?" style="rhombus;whiteSpace=wrap;html=1;" vertex="1" parent="WIyWlLk6GJQsqaUBKTNV-1">
          <mxGeometry x="374" y="270" width="80" height="80" as="geometry" />
        </mxCell>
        <mxCell id="nkC5d7Wf9p8jkV71f5r1-18" style="edgeStyle=orthogonalEdgeStyle;rounded=0;orthogonalLoop=1;jettySize=auto;html=1;entryX=1;entryY=0.5;entryDx=0;entryDy=0;" edge="1" parent="WIyWlLk6GJQsqaUBKTNV-1" source="nkC5d7Wf9p8jkV71f5r1-5" target="nkC5d7Wf9p8jkV71f5r1-9">
          <mxGeometry relative="1" as="geometry">
            <Array as="points">
              <mxPoint x="580" y="470" />
            </Array>
          </mxGeometry>
        </mxCell>
        <mxCell id="nkC5d7Wf9p8jkV71f5r1-5" value="Mostrar mensaje: &quot;Puedes ingresar a la discoteca!!&quot;" style="shape=parallelogram;perimeter=parallelogramPerimeter;whiteSpace=wrap;html=1;fixedSize=1;" vertex="1" parent="WIyWlLk6GJQsqaUBKTNV-1">
          <mxGeometry x="514" y="275" width="136" height="70" as="geometry" />
        </mxCell>
        <mxCell id="nkC5d7Wf9p8jkV71f5r1-10" value="" style="edgeStyle=orthogonalEdgeStyle;rounded=0;orthogonalLoop=1;jettySize=auto;html=1;" edge="1" parent="WIyWlLk6GJQsqaUBKTNV-1" source="nkC5d7Wf9p8jkV71f5r1-7" target="nkC5d7Wf9p8jkV71f5r1-9">
          <mxGeometry relative="1" as="geometry">
            <Array as="points">
              <mxPoint x="240" y="470" />
            </Array>
          </mxGeometry>
        </mxCell>
        <mxCell id="nkC5d7Wf9p8jkV71f5r1-7" value="Mostrar mensaje: &quot;Lo sentimos mucho, no se puede ingresar a la discoteca siendo menor de edad&quot;" style="shape=parallelogram;perimeter=parallelogramPerimeter;whiteSpace=wrap;html=1;fixedSize=1;" vertex="1" parent="WIyWlLk6GJQsqaUBKTNV-1">
          <mxGeometry x="190" y="275" width="130" height="70" as="geometry" />
        </mxCell>
        <mxCell id="nkC5d7Wf9p8jkV71f5r1-9" value="Fin" style="ellipse;whiteSpace=wrap;html=1;" vertex="1" parent="WIyWlLk6GJQsqaUBKTNV-1">
          <mxGeometry x="380" y="430" width="80" height="80" as="geometry" />
        </mxCell>
      </root>
    </mxGraphModel>
  </diagram>
</mxfile>
